<svg xmlns="http://www.w3.org/2000/svg" viewBox="0 0 26 30">
	<path fill="currentColor" d="m4.63 2.85.12-.06a5.46 5.46 0 0 1 1.72-.57l.15-.02h.16c.47-.02 1.2.06 1.77.25h.02l.02.01c.31.1.72.29 1.1.5.45-.88 1.1-1.71 2.02-2.28A4.44 4.44 0 0 1 15.38.2a5.5 5.5 0 0 1 2.7 1.9 9.02 9.02 0 0 1 1.73 3.92 4.66 4.66 0 0 1 2.61.42 6.11 6.11 0 0 1 2.99 3.38c.5 1.3.7 2.8.53 4.28a7.32 7.32 0 0 1-1.85 4.28l.25.41c.24.42.36.76.47 1.06l.02.06.03.08c.12.32.23.64.3 1.14l.01.12v.13a4.74 4.74 0 0 1-.33 2.02l-.01.04-.02.04c-.36.89-.9 1.8-1.74 2.5a5.33 5.33 0 0 1-2.88 1.24c-.56.07-1.14.06-1.78.02h-.07a11.4 11.4 0 0 0-.34-.03 17.12 17.12 0 0 0-.53.38c-.93.7-1.46 1.05-2.1 1.42l-.04.02-.04.03c-.53.28-1.4.64-2.03.8h-.04l-.05.01c-1.12.24-2.33.2-3.53-.32-.8-.35-1.5-.87-2.05-1.75l-.05-.07-.03-.07a6.32 6.32 0 0 1-.7-2c-.14-.78-.18-1.63-.14-2.5v-.01c-2.43-.33-4.53-2.2-5.63-4.19A8.3 8.3 0 0 1 .02 15.8v-.01c-.16-1.77.41-3.91 2.42-5.07l.03-.02.04-.02.3-.15a8.68 8.68 0 0 1-.48-3.8c.06-.55.19-1.18.53-1.86.33-.7.83-1.4 1.65-1.94l.11-.08Z"/>
	<path fill="#F49898" d="M6.18 5.43c-.28.18-.46.4-.61.75-.15.28-.21.55-.25.89C5.08 9.09 6.4 11.83 8.16 13c.24.15.63.34.88.43.79.23 1.51 0 1.92-.65.42-.67.5-1.67.25-2.88-.07-.3-.4-1.22-.54-1.51a6.66 6.66 0 0 0-2.22-2.7c-.2-.14-.6-.32-.83-.4-.2-.07-.58-.11-.76-.1-.17.02-.56.16-.68.23ZM13.3 3.23a3 3 0 0 0-1.2 1.78 7.3 7.3 0 0 0 .55 5.2c.41.77.9 1.28 1.43 1.53.46.22.95.22 1.37 0 .99-.5 1.6-2 1.56-3.85a6.75 6.75 0 0 0-1.28-3.93c-.73-.93-1.68-1.21-2.43-.73ZM3.95 13.32c-.69.39-1.02 1.19-.94 2.21.06.6.3 1.34.65 1.97.8 1.43 2.19 2.5 3.41 2.67.64.09 1.17-.06 1.57-.41.55-.53.74-1.42.49-2.55a5.8 5.8 0 0 0-.39-1.08c-.95-1.9-2.78-3.2-4.21-2.99-.17.03-.47.11-.58.18ZM19.52 9.23a3.5 3.5 0 0 0-1.33 1.95 6.23 6.23 0 0 0 .36 4.25c.82 1.61 2.25 2.02 3.32.91a4.3 4.3 0 0 0 1.09-2.57c.23-2.05-.55-4.04-1.82-4.63a1.66 1.66 0 0 0-1.62.09ZM12.96 15.27c-1.11.66-2.14 2.44-2.78 4.81a12.4 12.4 0 0 0-.41 5.06c.05.31.24.85.36 1.05.18.3.38.45.71.6.53.23 1.08.27 1.72.13.32-.07.95-.32 1.32-.52.5-.29.92-.57 1.8-1.24.89-.63 1.15-.8 1.42-.89.35-.08.64-.11 1.5-.04.61.04.95.04 1.22 0 1.03-.11 1.72-.7 2.22-1.9.13-.35.16-.5.14-.82a2.24 2.24 0 0 0-.17-.6 3.33 3.33 0 0 0-.27-.63 12.44 12.44 0 0 0-3.17-3.4c-1.67-1.23-3.35-1.93-4.53-1.9-.42 0-.77.1-1.1.3h.02Z"/>
</svg>
