<!--
	Derived work from Twemoji under CC-BY 4.0
	https://github.com/jdecked/twemoji
-->
<svg xmlns="http://www.w3.org/2000/svg" viewBox="0 0 31 31">
	<path fill="currentColor" d="M15.5 27.817c-.894.99-1.995 1.843-3.397 2.176-1.51.36-2.86.004-3.96-.528l-3.524-2.558c-.846-.881-1.602-2.053-1.727-3.6-.117-1.436.354-2.746 1.021-3.902-1.219-.543-2.37-1.326-3.12-2.556-.81-1.325-.887-2.719-.72-3.93l1.343-4.134c.577-1.077 1.46-2.159 2.894-2.756 1.33-.554 2.723-.512 4.03-.235.14-1.326.529-2.663 1.467-3.756C10.818.859 12.12.355 13.322.139h4.356c1.202.216 2.503.72 3.514 1.898.939 1.094 1.328 2.43 1.468 3.757 1.307-.277 2.7-.32 4.03.235 1.435.597 2.317 1.68 2.894 2.757l1.344 4.133c.167 1.21.09 2.604-.72 3.93-.75 1.23-1.901 2.013-3.12 2.556.666 1.156 1.137 2.466 1.02 3.901-.125 1.549-.882 2.722-1.729 3.603l-3.52 2.555c-1.1.532-2.45.89-3.961.53-1.403-.333-2.504-1.186-3.398-2.177Z"/>
	<path fill="#F4ABBA" d="M24.706 16.96c2.931-.951 3.51-2.222 2.927-4.48-.665.215-1.47 0-1.587-.362-.117-.358.406-1.008 1.07-1.224-.853-2.17-2.07-2.856-5-1.905-1.122.365-2.262 1.042-3.252 1.84.453-1.188.745-2.481.745-3.66 0-3.082-1.029-4.027-3.358-4.169 0 .698-.455 1.397-.833 1.397-.378 0-.834-.699-.834-1.397-2.328.142-3.356 1.087-3.356 4.168 0 1.18.29 2.473.744 3.66-.989-.797-2.13-1.474-3.251-1.838-2.931-.953-4.147-.266-5.002 1.904.664.217 1.188.865 1.071 1.225-.116.36-.922.577-1.586.361-.584 2.258-.003 3.529 2.927 4.48 1.121.365 2.442.488 3.711.423-1.064.695-2.06 1.57-2.754 2.524-1.812 2.493-1.534 3.862.266 5.346.41-.565 1.19-.863 1.496-.64.306.22.264 1.055-.146 1.62 1.966 1.253 3.354 1.093 5.165-1.4.694-.953 1.217-2.172 1.55-3.399.331 1.227.855 2.445 1.548 3.4 1.812 2.493 3.2 2.652 5.167 1.399-.41-.566-.454-1.399-.147-1.622.305-.22 1.085.075 1.496.64 1.8-1.482 2.076-2.85.266-5.344-.693-.954-1.69-1.83-2.754-2.524 1.268.065 2.589-.058 3.71-.422Z"/>
	<path fill="#FFFFFF" d="m20.182 16.01-3.127-.695 2.703-1.72a.698.698 0 1 0-.75-1.178l-2.702 1.72.846-3.808a.698.698 0 1 0-1.363-.304l-.846 3.808-1.72-2.701a.698.698 0 1 0-1.178.75l1.72 2.702-3.81-.847a.698.698 0 1 0-.303 1.363l3.808.847-2.702 1.72a.699.699 0 0 0 .75 1.178l2.703-1.72-.695 3.127a.699.699 0 0 0 1.365.302l.694-3.128c.008.015.016.03.026.044l2.25 3.536a.7.7 0 0 0 1.179-.75l-2.251-3.536a.72.72 0 0 0-.03-.043l3.13.696a.699.699 0 0 0 .303-1.363Zm-4.394.454-.015.07a.707.707 0 0 1 .087-.055l-.072-.015Z"/>
	<path fill="#EA596E" d="M18.22 20.285a1.398 1.398 0 1 1 1.5 2.358 1.398 1.398 0 0 1-1.5-2.358Zm-5.211-8.19a1.397 1.397 0 1 1-1.5-2.356 1.397 1.397 0 0 1 1.5 2.357Zm1.34 7.626a1.398 1.398 0 1 1-.606 2.728 1.398 1.398 0 0 1 .607-2.728Zm2.122-9.544a1.396 1.396 0 1 1 .605-2.726 1.396 1.396 0 0 1-.605 2.726Zm-4.2 7.355a1.397 1.397 0 1 1-2.357 1.502 1.397 1.397 0 0 1 2.357-1.502Zm6.523-4.151a1.397 1.397 0 1 1 2.359-1.5 1.397 1.397 0 0 1-2.36 1.5Zm.555 3.16a1.398 1.398 0 0 1 2.728.605 1.397 1.397 0 0 1-2.728-.605Zm-8.863-1.97a1.397 1.397 0 1 1-2.728-.607 1.397 1.397 0 0 1 2.728.606Z"/>
	<path fill="#FFCC4D" d="M15.418 18.365a2.794 2.794 0 1 0 0-5.587 2.794 2.794 0 0 0 0 5.587Z"/>
</svg>
