<!--
	Derived work from Zondicons under MIT
	https://github.com/dukestreetstudio/zondicons
-->
<svg xmlns="http://www.w3.org/2000/svg" viewBox="0 0 30 30">
	<path fill="currentColor" d="m4.02 19.54-4.02-1v-7.09l4.02-1L1.88 6.9 6.9 1.88l3.56 2.14 1-4.02h7.09l1 4.02 3.55-2.14 5.02 5.02-2.14 3.56 4.02 1v7.09l-4.02 1 2.14 3.55-5.02 5.02-3.56-2.14-1 4.02h-7.09l-1-4.02-3.55 2.14-5.02-5.02 2.14-3.56Z"/>
	<path fill="#C3591D" d="M7.73 10.8 5.66 7.37l1.7-1.7 3.44 2.06a8.49 8.49 0 0 1 2.04-.84L13.8 3h2.4l.96 3.89c.72.19 1.42.48 2.04.84l3.43-2.07 1.7 1.7-2.06 3.44c.36.62.65 1.32.84 2.04l3.89.96v2.4l-3.89.96c-.19.72-.48 1.42-.84 2.04l2.07 3.43-1.7 1.7-3.44-2.06c-.62.36-1.32.65-2.04.84L16.2 27h-2.4l-.96-3.89a8.49 8.49 0 0 1-2.04-.84l-3.43 2.07-1.7-1.7 2.06-3.44a8.49 8.49 0 0 1-.84-2.04L3 16.2v-2.4l3.89-.96c.19-.72.48-1.42.84-2.04ZM15 18.6a3.6 3.6 0 1 0 0-7.2 3.6 3.6 0 0 0 0 7.2Z"/>
</svg>
