<!--
	Derived work from Zondicons under MIT
	https://github.com/dukestreetstudio/zondicons
-->
<svg xmlns="http://www.w3.org/2000/svg" viewBox="0 0 30 30">
	<path fill="currentColor" d="M9.01 16.77 7 16.27v-3.54l2.01-.5-1.07-1.78 2.51-2.5L12.23 9l.5-2.01h3.54l.5 2.01 1.78-1.07 2.5 2.51L20 12.23l2.01.5v3.54l-2.01.5 1.07 1.78-2.51 2.5L16.77 20l-.5 2.01h-3.54l-.5-2.01-1.78 1.07-2.5-2.51L9 16.77Z"/>
	<path fill="#C3591D" d="m10.86 12.4-1.03-1.72.85-.85 1.72 1.03c.31-.18.66-.32 1.02-.42l.48-1.94h1.2l.48 1.94c.36.1.7.24 1.02.42l1.72-1.03.85.85-1.03 1.72c.18.31.32.66.42 1.02l1.94.48v1.2l-1.94.48c-.1.36-.24.7-.42 1.02l1.03 1.72-.85.85-1.72-1.03c-.31.18-.66.32-1.02.42l-.48 1.94h-1.2l-.48-1.94c-.36-.1-.7-.24-1.02-.42l-1.72 1.03-.85-.85 1.03-1.72a4.24 4.24 0 0 1-.42-1.02L8.5 15.1v-1.2l1.94-.48c.1-.36.24-.7.42-1.02Zm3.64 3.9a1.8 1.8 0 1 0 0-3.6 1.8 1.8 0 0 0 0 3.6Z"/>
</svg>
