<!--
	Derived work from Twemoji under CC-BY 4.0
	https://github.com/jdecked/twemoji
-->
<svg xmlns="http://www.w3.org/2000/svg" viewBox="0 0 31 31">
	<path fill="currentColor" d="m26.77 26.25-.06.07-.07.08c-.33.37-.68.7-1.05 1.01l-.09.09h-.01c-2.14 1.76-4.71 2.5-6.85 2.94-3.05.98-6.38.65-9.18-.83a6.27 6.27 0 0 0-.32-.1h-.01l-.46-.14a7.07 7.07 0 0 1-1.92-.84C3.9 26.68 2.4 23.76 1.43 21.4c-1.55-2.92-1.56-6.22-1.3-8.75v-.14l.04-.14a7.08 7.08 0 0 1 1-2.43l.16-.32c.69-1.95 1.8-3.67 3.34-5.1.08-.08.15-.16.26-.31l.32-.4A8.16 8.16 0 0 1 6.77 2.4L7.5 2l1.19-.47.47-.15.44-.14.44-.2.5-.26c.44-.21 1.1-.51 1.89-.67A7.1 7.1 0 0 1 14.98.1l.45.03a18.2 18.2 0 0 1 5.75.71l.14.05.13.05c.84.35 1.47.87 1.82 1.17l.37.32c.16.14.22.2.32.26a30.1 30.1 0 0 1 .9.52c.4.24 1.01.62 1.58 1.18 1.4 1.36 2.63 3 3.5 4.86l.1.2.06.2c.56 1.83.82 3.76.86 5.6.37 4.6-2.12 8.38-4.2 11Z"/>
	<path fill="#DA9F83" d="M27.97 15.41c.3 3.42-1.53 6.42-3.56 8.98-1.69 1.88-4.11 2.67-6.54 3.15-2.35.8-4.98.54-7.14-.66-.76-.32-1.66-.41-2.33-.86-2.12-1.36-3.33-3.63-4.25-5.9-1.2-2.15-1.28-4.78-1.04-7.17.16-.82.7-1.5 1.02-2.24a9.59 9.59 0 0 1 2.62-4.03c.58-.58 1.02-1.34 1.7-1.8.67-.45 1.54-.55 2.3-.87.75-.31 1.45-.8 2.26-.96.79-.15 1.62.08 2.45.08 1.65-.04 3.3.11 4.84.58.76.32 1.3 1.02 1.98 1.47.68.46 1.47.77 2.05 1.34 1.18 1.16 2.2 2.51 2.9 4 .48 1.56.7 3.24.74 4.9Z"/>
	<path fill="#8A4B38" d="M18.9 14.73a1.65 1.65 0 1 1 1.02 3.14c-.87.29-2.85.15-3.13-.71-.28-.87 1.24-2.15 2.11-2.43Zm6.3-.49a.79.79 0 1 1-1.2-1.01c.28-.33 1.11-.78 1.44-.5.34.28.04 1.18-.24 1.51ZM9.03 9.09a.79.79 0 1 1-1.2-1.01c.27-.33 1.1-.78 1.44-.5.33.28.04 1.18-.24 1.51Zm8.89-1.39a1.18 1.18 0 1 1 1.27-2c.55.36 1.38 1.51 1.03 2.06-.36.56-1.75.3-2.3-.06Zm-5.83 4.57a1.58 1.58 0 1 1 2.85-1.36c.37.78.5 2.68-.29 3.05-.79.38-2.18-.9-2.56-1.69Zm.75 10.37a1.41 1.41 0 1 1 2.33 1.6c-.45.65-1.86 1.58-2.5 1.14-.64-.45-.27-2.1.17-2.74Zm7.37-.3a1.08 1.08 0 1 1 1.16-1.82c.5.32 1.26 1.38.94 1.88-.32.5-1.6.26-2.1-.06ZM6.33 15.82a1.52 1.52 0 1 1 2.26 2.03c-.56.62-2.2 1.43-2.82.87-.63-.56 0-2.28.56-2.9Z"/>
</svg>
