<!--
	Derived work from Game Icons under CC-BY 3.0
	https://github.com/game-icons/icons
	Icon from Caro Asercion
-->
<svg xmlns="http://www.w3.org/2000/svg" viewBox="0 0 27 21">
	<path fill="currentColor" d="M7.5 1.5C10.854.158 13 1 15.876 3.92c.316.535.556 1.061.734 1.52 1.593-.26 3.128-.086 4.527.602h.001c2.297 1.13 3.64 3.374 4.415 5.634l.674 1.961-4.22 2.837-1.57-1.488a.997.997 0 0 0-.132-.109.266.266 0 0 0-.044-.025h-.002s-.011-.002-.035-.002c-.123.002-.465.063-1.132.425l-.025.014-.026.013c-.841.434-1.778 1.06-2.96 1.854l-.029.019c-.942.633-2.01 1.35-3.147 2.016l-.013.008-.013.008c-4.098 2.337-9.456 2.056-11.723-1.902l-.005-.008c-1.196-2.106-1.114-4.652.136-7.115.117-.236.241-.465.372-.688l1.74-2.298C4.454 6.073 5.57 5.218 6.402 4.58 7.5 3.737 7.669 2.774 7.5 1.5Z"/>
	<path fill="#E08C73" d="M8.17 6.626C10.003 5.218 11.277 4.24 9.818 3c3.76-.081 4.646 4.643 4.646 4.643-1.359.554-2.69 1.65-3.953 2.69-2.121 1.747-4.05 3.335-5.59 1.922.094.498.365.953.902 1.12 1.473.423 3.636-1.107 4.89-1.994l.113-.08c2.042-1.569 3.775-2.52 5.245-2.966 1.555-.475 2.83-.384 3.876.13 1.375.676 2.382 2.133 3.053 4.087l-.704.474c-1.336-1.267-2.828-1.028-4.492-.124-1.009.52-2.083 1.242-3.23 2.012-.959.644-1.968 1.323-3.033 1.946-3.402 1.941-6.817 1.242-8.043-.898-.664-1.169-.73-2.742.204-4.572C4.755 9.248 6.654 7.79 8.17 6.626Zm13.454 4.897c-.523-1.039-1.19-1.824-2.043-2.244-2.906-1.366-6.074 1.298-6.998 2.686l2.939-1.432-3.535 3.226c1.197-.046 2.409-.545 3.646-1.67l-.974 1.672c1.399-.944 2.694-1.748 3.885-2.185 1.09-.41 2.115-.465 3.08-.053Z"/>
</svg>
