<!--
	Derived work from Font Awesome 5 under CC-BY 4.0
	https://github.com/FortAwesome/Font-Awesome
-->
<svg xmlns="http://www.w3.org/2000/svg" viewBox="0 0 26 25">
	<path fill="currentColor" d="M.3 18.33c.46-1.13 1.44-2.8 3.08-4.41-.02-.21-.05-.5-.05-.8 0-5.34 4.3-9.74 9.67-9.74h2.78c1.07 0 2.02-.56 2.6-1.56a3.54 3.54 0 0 1 6.34.3c.83 1.9 1.28 4.15 1.28 6.3 0 7.2-4.65 13.83-12.02 14.4a9.4 9.4 0 0 1-6.05-1.4l-.02.04A4.1 4.1 0 0 1 .3 18.34Z"/>
	<path fill="#86A781" d="M21.97 3.34c-.2-.44-.75-.46-.99-.04a5.94 5.94 0 0 1-5.2 3.08H13a6.71 6.71 0 0 0-6.67 6.74c0 .25.03.49.05.73 2.22-1.61 5.42-2.98 9.95-2.98.3 0 .56.26.56.57 0 .3-.25.56-.56.56C7.6 12 3.9 17.42 3.08 19.45a1.1 1.1 0 1 0 2.06.85c.05-.12.73-1.68 2.5-3.18a6.62 6.62 0 0 0 6.07 2.71c5.45-.4 9.29-5.35 9.29-11.4 0-1.77-.38-3.6-1.03-5.09Z"/>
</svg>
