<!--
	Derived work from Twemoji under CC-BY 4.0
	https://github.com/jdecked/twemoji
-->
<svg xmlns="http://www.w3.org/2000/svg" viewBox="0 0 40 40">
	<path fill="currentColor" d="M6.01 18.04A12.03 12.03 0 0 0 16.47.07a14.95 14.95 0 0 1 6.44 2.16A15.02 15.02 0 1 1 .07 16.47c1.75 1 3.78 1.57 5.94 1.57Z"/>
	<path fill="#66757F" d="M6 21A15 15 0 0 0 20.93 4.57 12 12 0 1 1 4.57 20.93c.47.05.95.07 1.43.07Z"/>
	<path fill="#5B6876" d="M19.67 21.33a2.33 2.33 0 1 1-4.67 0 2.33 2.33 0 0 1 4.67 0ZM23 9.67a.67.67 0 1 0 0-1.34.67.67 0 0 0 0 1.34ZM13.67 23.67a.67.67 0 1 1-1.34 0 .67.67 0 0 1 1.34 0ZM24.33 17a1.33 1.33 0 1 0 0-2.67 1.33 1.33 0 0 0 0 2.67Z"/>
</svg>
