<svg xmlns="http://www.w3.org/2000/svg" viewBox="0 0 30 25">
	<path fill="currentColor" d="M28.14 18.62h-.01a3 3 0 0 0 1.28-3.3l-3.5-13.1A3 3 0 0 0 21.37.48l-.03.02a10.29 10.29 0 0 1-.76.44c-.54.3-1.3.68-2.15 1.02-1.87.76-3.59 1.1-4.7.81C10.67 1.98 7.4 3 5.3 3.84a26.93 26.93 0 0 0-3.89 1.98l-.02.01h-.01l.02.04-.03-.03A3 3 0 0 0 .1 9.14l3.51 13.09a3 3 0 0 0 4.52 1.75l.03-.02a11.19 11.19 0 0 1 .77-.45c.53-.29 1.29-.67 2.14-1.02 1.87-.76 3.6-1.1 4.7-.81 3.08.79 6.36-.22 8.44-1.07a26.93 26.93 0 0 0 3.9-1.97l.02-.02c0 .02 0 0 0 0Z"/>
	<path fill="#FF82B1" d="M13 5.68C8.82 4.61 3 8.36 3 8.36l1.46 5.46s5.82-3.76 10-2.68c4.19 1.07 10-2.68 10-2.68L23 3S17.2 6.75 13 5.68Z"/>
	<path fill="#F7F48B" d="M14.2 10.18c-4.18-1.07-10 2.68-10 2.68l1.43 5.32s5.82-3.75 10-2.68c4.19 1.07 10-2.68 10-2.68L24.22 7.5s-5.82 3.75-10 2.68Z"/>
	<path fill="#8BD1F9" d="M15.34 14.4c-4.18-1.06-10 2.69-10 2.69l1.14 4.25s5.82-3.75 10-2.68c4.19 1.07 10-2.68 10-2.68l-1.14-4.25s-5.81 3.75-10 2.68Z"/>
</svg>
