<svg xmlns="http://www.w3.org/2000/svg" viewBox="0 0 30 25">
	<path fill="currentColor" d="M28.14 18.62h-.01a3 3 0 0 0 1.28-3.3l-3.5-13.1A3 3 0 0 0 21.37.48l-.03.02a10.29 10.29 0 0 1-.76.44c-.54.3-1.3.68-2.15 1.02-1.87.76-3.59 1.1-4.7.81C10.67 1.98 7.4 3 5.3 3.84a26.93 26.93 0 0 0-3.89 1.98l-.02.01h-.01l.02.04-.03-.03A3 3 0 0 0 .1 9.14l3.51 13.09a3 3 0 0 0 4.52 1.75l.03-.02a11.19 11.19 0 0 1 .77-.45c.53-.29 1.29-.67 2.14-1.02 1.87-.76 3.6-1.1 4.7-.81 3.08.79 6.36-.22 8.44-1.07a26.93 26.93 0 0 0 3.9-1.97l.02-.02c0 .02 0 0 0 0Z"/>
	<path fill="#F47C7C" d="M13 5.63C8.8 4.56 3 8.3 3 8.3l.87 3.27s5.82-3.75 10-2.68c4.19 1.07 10-2.68 10-2.68L23 2.95S17.18 6.7 13 5.63Z"/>
	<path fill="#FFC268" d="M13.58 7.81c-4.18-1.07-10 2.68-10 2.68l.88 3.27s5.81-3.75 10-2.68c4.18 1.08 10-2.68 10-2.68l-.88-3.27s-5.81 3.75-10 2.68Z"/>
	<path fill="#F7F48B" d="M14.17 10c-4.19-1.08-10 2.67-10 2.67l.87 3.28s5.82-3.75 10-2.68c4.19 1.07 10-2.68 10-2.68l-.87-3.28s-5.82 3.76-10 2.68Z"/>
	<path fill="#A1DE93" d="M14.75 12.18c-4.19-1.08-10 2.68-10 2.68l.87 3.27s5.82-3.75 10-2.68c4.2 1.07 10-2.68 10-2.68l-.87-3.27s-5.82 3.75-10 2.68Z"/>
	<path fill="#70A1D7" d="M15.33 14.36c-4.18-1.07-10 2.68-10 2.68l.88 3.27s5.82-3.75 10-2.68c4.19 1.07 10-2.68 10-2.68l-.87-3.27s-5.82 3.75-10 2.68Z"/>
	<path fill="#957DAD" d="M15.92 16.54c-4.19-1.07-10 2.68-10 2.68l.58 2.18s5.82-3.75 10-2.68c4.19 1.07 10-2.68 10-2.68l-.58-2.18s-5.82 3.75-10 2.68Z"/>
</svg>
