<!--
	Derived work from Twemoji under CC-BY 4.0
	https://github.com/jdecked/twemoji
-->
<svg xmlns="http://www.w3.org/2000/svg" viewBox="0 0 33 33">
	<path fill="currentColor" d="m15.98 30.94.45.33a3.63 3.63 0 0 0 5.58-1.89c.15-.48.2-.99.2-1.46.4.26.85.5 1.33.64a3.62 3.62 0 0 0 4.7-3.55l-.03-.57.57-.01h.01a3.63 3.63 0 0 0 1.79-6.73c-1.04-.63-2.21-1.4-3.34-2.18a3.94 3.94 0 0 0 .86-4.91l-3.97-7.48A4.76 4.76 0 0 0 21.56.8a4.58 4.58 0 0 0-3.26.1c-1.54.6-2.81 1.91-3.67 2.92a23.84 23.84 0 0 0-2.69 3.96l-.73-.06a24.22 24.22 0 0 0-4.11.1c-1.33.14-3.13.48-4.5 1.41a4.61 4.61 0 0 0-1.92 2.63c-.34 1.3-.02 2.51.49 3.46l3.96 7.48a3.95 3.95 0 0 0 4 2.13c.02 1.45 0 2.92-.06 4.19-.08 1.6.9 3.07 2.42 3.6h.01c1.5.53 3.2.02 4.15-1.32l.33-.46Z"/>
	<path fill="#DD2E44" d="M14.15 10.34c.12.23-1.2.92-1.31.7-.26-.5-11.14-1.12-9.03 2.87l3.97 7.48c.74 1.38 2.5.06 4.08-1.9.25 2.36.36 6.67.2 9.78 0 .28.16.53.43.62.26.1.55 0 .71-.23l2.13-3c.46.28 1.06.77 1.61 1.21.42.34.84.68 1.24.96a.63.63 0 0 0 .66.05c.14-.08.25-.21.3-.37.37-1.2-.58-5.66-1.5-9.21 2.43 2.75 5.59 6.03 6.8 6.4a.62.62 0 0 0 .8-.61c-.01-.49-.06-1.03-.1-1.56-.06-.7-.13-1.49-.1-2.02l3.68-.08a.62.62 0 0 0 .3-1.16 72.45 72.45 0 0 1-8.35-5.97c2.9-.05 5.61-.72 4.78-2.29l-3.97-7.48c-2.12-3.98-7.6 5.32-7.33 5.81Z"/>
	<path fill="#A0041E" d="M8.05 21.73c1.59 1.43 5.8-4.35 6.68-7.22.08-.26.12-.5.16-.71-5.7 3.2-6.9 6.4-6.84 7.93Zm7.31-8.19c.2.1.42.19.69.27 3.04.94 10.72.7 9.4-1.8l-.06-.11c-1.57-.73-4.81-1.02-10.03 1.64Z"/>
	<path fill="#EA596E" d="M17.12 12.32c.59 1.1.17 2.47-.93 3.05l-1 .53c-1.09.58-2.45.16-3.04-.94l-1.11-2.1a2.25 2.25 0 0 1 .92-3.06l1-.52a2.25 2.25 0 0 1 3.04.94l1.12 2.1Z"/>
</svg>
