<svg xmlns="http://www.w3.org/2000/svg" viewBox="0 0 28 24">
	<path fill="currentColor" d="M17.4 23.4 14 21.5l-3.4 2c-1.5.8-3.2.6-4.4-.2a4 4 0 0 1-1.7-4.4l.8-3.3-2.8-2.3c-3.1-2.6-1-7 2.3-7.3l4-.3 1.4-3.3A4.2 4.2 0 0 1 14 0c1.4 0 3 .7 3.8 2.4l1.5 3.3 3.9.3c3.4.3 5.4 4.7 2.3 7.3l-2.8 2.3.8 3.3a4 4 0 0 1-1.7 4.4c-1.2.8-3 1-4.4.1Z"/>
	<path fill="#FDD264" d="m14 18 4.8 2.8c1 .5 2-.2 1.8-1.2l-1.3-5.1 4.3-3.5c.8-.7.4-1.9-.7-2l-5.6-.4-2.2-5c-.4-.8-1.8-.8-2.2 0l-2.2 5-5.6.4c-1 0-1.5 1.3-.7 2l4.3 3.4-1.3 5.2c-.2 1 .9 1.7 1.8 1.2l4.8-2.7Z"/>
</svg>
