<!--
	Derived work from Twemoji under CC-BY 4.0
	https://github.com/jdecked/twemoji
-->
<svg xmlns="http://www.w3.org/2000/svg" viewBox="0 0 26 30">
	<path fill="currentColor" d="M16.95 1.88c.25.1.72.3 1.17.72 3.43.78 5.93 3.04 6.8 5.63.66 1.98.34 4.17.14 5.56l-.03.22c-.26 1.79-.31 2.57-.16 3.02.79 2.37.96 4.53.27 6.49a8.35 8.35 0 0 1-2.8 3.74v-.01a5.61 5.61 0 0 1-3.5 2.1c-1.4.25-2.75 0-3.85-.36-2.16-.7-4.2-2.08-5.4-3.2-.83-.77-1.72-1.33-2.8-2v-.01l-1.45-.92c-1.55-1.02-3.62-2.55-4.48-5.15-.77-2.28-.9-4.58-.02-6.76a3.4 3.4 0 0 1-.1-3.65v-.17c.1-.7.41-1.36.92-1.86.2-.22.42-.4.59-.52a9.55 9.55 0 0 1 2.57-1.36c.88-.29 1.6-.45 2.23-.53a8.59 8.59 0 0 1 4-1.97c.2-.03.53-.06.9-.04l.23-.1h.02c.24-.1.57-.22.94-.29a3.09 3.09 0 0 1 3.15 1.2l.02.01.37.11.27.1Z"/>
	<path fill="#BE1931" d="M20.15 25.15c1.93-1.45 3.2-3.2 1.88-7.19-.84-2.53.9-6.23.04-8.8-.82-2.47-5.07-5.59-11.42-2.7C4.13 9.4 2.22 12.3 3.7 16.76c1.04 3.1 5.09 4.18 7.94 6.83 1.89 1.76 6.66 4.5 8.51 1.55Z"/>
	<path fill="#77B255" d="M15.88 4.67c-1.02-.39-2.38-.3-3.7.06l.49-.23c.6-.24 2-1.53.65-.98-.6.24-1.14.56-1.7.86.12-.15.24-.3.38-.43-.16-.44-2.67.4-3.59 1.88-.34.04-.75-.23-2.64.4-1.25.42-2.74 1.56-1.67 1.26.58-.17 1.26-.42 1.24-.16-.4.17-2.28 1.2-2.07 1.83.07.23 1.7-.68 1.88-.62-.95.76-1.47 1.89-1.26 2.52.1.26 1.22-.99 1.68-1.26-.42.84-.52 1.36-.34 1.81.13.3 1.48-.55 1.62-.66.46-.34 2.06-1.56 2.31-2.67.14.15 2.14.23 2.89.06.34-.07 1.7-.37 1.2-.89-.16-.15-1-.57-1.39-1.13.28-.1 5.42-1.11 4.02-1.65Z"/>
	<path fill="#F4ABBA" d="M8.15 16.86c-.4-.9-2.28-1.52-1.67-.15.39.9 2.27 1.52 1.67.15Zm4.8-1.21c-.18-.38-.43-.7-.79-.91-.4-.25-.75 0-.7.46.04.54.41 1.08.87 1.37l.04.02-.74-.86.02.03c.18.39.61 1 1.11.96.51-.04.31-.8.18-1.07Zm2.59-4.25c.1-.7-.73-2.53-.93-1.06-.1.7.72 2.53.93 1.06Zm4.21-2.42c-.09-.22-.2-.48-.45-.56-.93-.3-1 1.99-.23 2.23l.05.01-.4-.5.01.03c.15.34.52.79.88.37.33-.4.34-1.13.14-1.58Zm.96 5.68c.3-1.2-1.07-2.06-1.44-.6-.31 1.2 1.06 2.06 1.44.6Zm-3 3.02c-.3-1.26-2.03-1.25-1.68.21.3 1.26 2.02 1.26 1.68-.2Zm-6.46 1.3-.03.01 1 .17h-.01c-.26-.12-1.08-.4-1.25 0-.17.4.61.79.86.9.28.13.74.29 1.05.16.88-.36-1.04-1.48-1.62-1.24Zm9.53.97c.39-.88-.4-2.7-1-1.33-.38.87.4 2.7 1 1.33ZM9.45 13.94l.17-.07c.43-.18.33-1.13.25-1.45-.1-.37-.34-.91-.8-.72l-.16.07c-.43.17-.33 1.12-.25 1.44.1.37.33.91.79.73Zm8.12 7.98c.4.4.5.97.2 1.28-.3.3-.87.23-1.28-.17-.4-.4-.5-.97-.2-1.28.3-.3.87-.23 1.28.17Z"/>
</svg>
