<!--
	Derived work from Twemoji under CC-BY 4.0
	https://github.com/jdecked/twemoji
-->
<svg xmlns="http://www.w3.org/2000/svg" viewBox="0 0 30 30">
	<path fill="currentColor" d="m19.33 5.2.41-.4.01-.01.03-.03a3.43 3.43 0 0 1 .5-.41 4.17 4.17 0 0 1 5.59.45 4.17 4.17 0 0 1 1.08 4.37 4.64 4.64 0 0 1-.86 1.52 4.76 4.76 0 0 1 1.59.46A4.17 4.17 0 0 1 30 15a4.17 4.17 0 0 1-2.32 3.85 4.63 4.63 0 0 1-1.96.48h-.93l.41.41h.01v.02l.03.02a3.85 3.85 0 0 1 .41.5 4.17 4.17 0 0 1-.45 5.59 4.17 4.17 0 0 1-4.37 1.08 4.64 4.64 0 0 1-1.52-.86 4.71 4.71 0 0 1-.46 1.59A4.17 4.17 0 0 1 15 30a4.17 4.17 0 0 1-3.85-2.32 4.63 4.63 0 0 1-.46-1.6 4.68 4.68 0 0 1-1.53.87 4.17 4.17 0 0 1-4.36-1.08 4.17 4.17 0 0 1-1.08-4.37 4.64 4.64 0 0 1 1.04-1.72l.02-.02.01-.01.42-.42h-.93a3.18 3.18 0 0 1-.65-.06c-.32-.05-.8-.16-1.3-.42A4.17 4.17 0 0 1 0 15a4.17 4.17 0 0 1 2.33-3.85 4.64 4.64 0 0 1 1.58-.46 4.67 4.67 0 0 1-.86-1.53A4.17 4.17 0 0 1 4.13 4.8 4.17 4.17 0 0 1 8.5 3.72a4.64 4.64 0 0 1 1.72 1.04l.02.02.01.01.42.42v-.93a3.18 3.18 0 0 1 .06-.65c.05-.32.16-.8.42-1.3A4.17 4.17 0 0 1 15 0a4.17 4.17 0 0 1 3.85 2.33 4.64 4.64 0 0 1 .48 1.95v.93Z"/>
	<path fill="#FFAC33" d="M13.67 4.33S13.67 3 15 3s1.33 1.33 1.33 1.33v1.34S16.33 7 15 7s-1.33-1.33-1.33-1.33V4.33Zm12 9.34S27 13.67 27 15s-1.33 1.33-1.33 1.33h-1.34S23 16.33 23 15s1.33-1.33 1.33-1.33h1.34Zm-20 0S7 13.67 7 15s-1.33 1.33-1.33 1.33H4.33S3 16.33 3 15s1.33-1.33 1.33-1.33h1.34Zm3.41-5.8s.94.93 0 1.88c-.94.94-1.88 0-1.88 0l-.95-.94s-.94-.95 0-1.9c.95-.93 1.89 0 1.89 0l.94.95Zm14 14s.94.93 0 1.88c-.94.94-1.88 0-1.88 0l-.95-.95s-.94-.94 0-1.88c.95-.94 1.89 0 1.89 0l.94.94Zm-.27-12.12s-.95.94-1.89 0c-.94-.95 0-1.89 0-1.89l.94-.94s.95-.94 1.89 0 0 1.88 0 1.88l-.94.95Zm-14 14s-.95.94-1.89 0c-.94-.95 0-1.89 0-1.89l.94-.94s.95-.94 1.89 0 0 1.88 0 1.88l-.94.95Zm4.86.58S13.67 23 15 23s1.33 1.33 1.33 1.33v1.34S16.33 27 15 27s-1.33-1.33-1.33-1.33v-1.34ZM15 21.67a6.67 6.67 0 1 0 0-13.34 6.67 6.67 0 0 0 0 13.34Z"/>
</svg>
