<svg xmlns="http://www.w3.org/2000/svg" viewBox="0 0 24 24">
  <path d="M2.513 15.926c-1.24-.32-1.996-1.194-2.249-2.6-.319-1.775.376-3.373 1.738-3.998.561-.257 1.831-.327 2.489-.138.871.25 1.552.911 1.921 1.862.21.541.29 1.827.153 2.477-.214 1.021-.955 1.945-1.815 2.263C4.205 15.995 3.046 16.064 2.513 15.926L2.513 15.926zM4.011 14.544c.6-.307.811-.918.766-2.223-.025-.708-.059-.895-.221-1.207-.244-.468-.574-.654-1.163-.654-.788 0-1.175.437-1.325 1.495-.099.7.005 1.636.229 2.067.223.428.573.634 1.079.634C3.606 14.656 3.891 14.606 4.011 14.544L4.011 14.544zM9.029 15.983c-.106-.019-.428-.092-.716-.163-.522-.128-.523-.128-.477-.36.09-.45.27-1.026.332-1.064.035-.021.232.012.438.073.546.163 1.335.217 1.704.118.501-.134.723-.348.723-.695 0-.392-.214-.552-1.115-.83-1.405-.434-1.819-.791-1.936-1.669-.067-.502.071-1.066.356-1.449.316-.425 1.023-.781 1.678-.846.617-.061 1.692.024 2.174.17.338.103.347.113.328.399-.01.161-.072.452-.137.646l-.118.353-.518-.146c-.353-.099-.694-.138-1.07-.121-.676.03-.874.167-.874.604 0 .349.103.414 1.265.801.893.297 1.192.48 1.463.893.371.566.367 1.5-.009 2.103-.472.756-1.312 1.152-2.526 1.192C9.569 16.007 9.135 16.002 9.029 15.983L9.029 15.983zM16.311 15.951c-.945-.148-1.586-.604-1.953-1.39l-.223-.478-.024-2.46-.024-2.46h1.775l.024 2.231c.022 2.052.036 2.256.178 2.534.233.458.565.612 1.324.612.346 0 .646-.017.665-.038.058-.062.129-2.138.13-3.795l.001-1.545H20v6.471l-.756.166C18.439 15.989 17.017 16.061 16.311 15.951L16.311 15.951zM22 7h2v6h-2V7zM22 16v-2h2v2H22z" fill="#FF66AA"/>
</svg>
